<?xml version="1.0" encoding="iso-8859-1"?>
<!-- Generator: Adobe Illustrator 19.0.0, SVG Export Plug-In . SVG Version: 6.00 Build 0)  -->
<svg version="1.1" id="Layer_1" fill="#fff" xmlns="http://www.w3.org/2000/svg" xmlns:xlink="http://www.w3.org/1999/xlink" x="0px" y="0px"
	 viewBox="0 0 512 512" style="enable-background:new 0 0 512 512;" xml:space="preserve">
<g>
	<g>
		<polygon points="344.32,133.76 211.936,297.104 156.304,242.152 119.624,282.576 216.232,377.976 385.056,169.688 		"/>
	</g>
</g>
<g>
	<g>
		<path d="M256,0C114.84,0,0,114.84,0,256s114.84,256,256,256s256-114.84,256-256S397.16,0,256,0z M308.8,384.528v32H412
			C371.632,455.768,316.608,480,256,480C132.488,480,32,379.512,32,256c0-47.8,15.096-92.12,40.712-128.536H203.2v-32H100
			C140.368,56.232,195.392,32,256,32c123.512,0,224,100.48,224,224c0,47.8-15.096,92.12-40.712,128.528H308.8z"/>
	</g>
</g>
<g>
</g>
<g>
</g>
<g>
</g>
<g>
</g>
<g>
</g>
<g>
</g>
<g>
</g>
<g>
</g>
<g>
</g>
<g>
</g>
<g>
</g>
<g>
</g>
<g>
</g>
<g>
</g>
<g>
</g>
</svg>
